<svg width="419" height="361" viewBox="0 0 419 361" fill="none" xmlns="http://www.w3.org/2000/svg">
<path fill-rule="evenodd" clip-rule="evenodd" d="M118.363 43.0445H300.35V0H276.276V18.6527H141.291V0H118.363V43.0445ZM347.352 131.429C347.352 112.489 344.486 101.871 337.607 93.5495C329.583 83.2188 316.113 77.4796 296.911 77.4796C286.179 77.4796 275.686 78.3576 265.769 79.1875L265.769 79.1875L265.769 79.1876C256.883 79.9311 248.459 80.636 240.739 80.636C224.69 80.636 219.244 73.1751 219.244 55.9573H200.902C200.902 73.1751 195.458 80.636 179.408 80.636C171.688 80.636 163.264 79.9312 154.379 79.1876L154.379 79.1876H154.378H154.378H154.378H154.378C144.461 78.3576 133.968 77.4796 123.235 77.4796C103.46 77.4796 89.9905 83.5058 81.9659 93.5495C75.3742 101.871 72.2216 112.776 72.2216 131.429V140.612H99.7347V130.28C99.7347 121.672 101.741 115.933 105.753 112.202C110.339 108.185 116.93 107.037 124.954 107.037C133.315 107.037 141.608 107.783 150.13 108.55H150.13H150.13H150.13H150.13H150.13H150.13H150.13H150.13C159.136 109.36 168.396 110.193 178.262 110.193C198.323 110.193 205.487 102.158 209.787 93.8365C214.086 102.158 220.964 110.193 241.312 110.193C251.178 110.193 260.438 109.36 269.443 108.55C277.965 107.783 286.258 107.037 294.619 107.037C302.357 107.037 309.235 108.185 313.821 112.202C317.833 115.933 319.838 121.672 319.838 130.28V140.612H347.352V131.429ZM209.5 169.594L187.718 233.875H171.956L138.711 127.411H161.352L180.554 189.682L201.475 127.411H217.238L238.159 189.682L257.361 127.411H280.002L246.757 233.875H230.994L209.5 169.594ZM300.637 171.316H368.273V191.404H300.637V171.316ZM118.076 171.316H50.4393V191.404H118.076V171.316ZM239.876 280.649C223.827 280.649 218.381 288.11 218.381 305.328H200.039C200.039 288.11 194.595 280.649 178.545 280.649C170.825 280.649 162.401 281.354 153.515 282.097C143.597 282.927 133.104 283.805 122.372 283.805C102.311 283.805 88.8409 278.066 81.1029 267.735C74.2246 259.414 71.3586 248.796 71.3586 229.856V220.673H99.1583V231.004C99.1583 239.613 101.164 245.352 105.177 249.083C109.762 253.1 116.64 254.248 124.378 254.248C132.739 254.248 141.032 253.502 149.554 252.735L149.554 252.735C158.559 251.925 167.82 251.092 177.685 251.092C198.033 251.092 204.911 259.126 209.211 267.448C213.51 259.126 220.675 251.092 240.736 251.092C250.601 251.092 259.86 251.925 268.865 252.735H268.865H268.865H268.865H268.866H268.866H268.866H268.866H268.866H268.867C277.389 253.502 285.682 254.248 294.043 254.248C302.067 254.248 308.659 253.1 313.244 249.083C317.256 245.352 319.262 239.613 319.262 231.004V220.673H346.776V229.856C346.776 248.508 343.623 259.414 337.031 267.735C329.007 277.779 315.536 283.805 295.762 283.805C285.899 283.662 276.036 282.877 266.599 282.125L266.599 282.125H266.598C257.116 281.37 248.064 280.649 239.876 280.649ZM118.363 318.242H300.35V361H277.423V342.348H142.437V361H118.363V318.242ZM67.0617 60.5497C57.3176 60.5497 49.8661 53.0887 49.8661 43.3319C49.8661 33.5752 57.6041 26.1141 67.0617 26.1141C76.806 26.1141 84.2574 33.8621 84.2574 43.3319C83.9708 53.0887 76.5194 60.5497 67.0617 60.5497ZM84.2587 317.668C84.2587 308.198 76.8073 300.45 67.0631 300.45C57.3189 300.45 49.5809 308.198 49.8675 317.668C49.8675 327.425 57.3189 334.887 67.0631 334.887C76.8073 334.887 84.2587 327.425 84.2587 317.668ZM59.325 82.9314L35.2511 66.0005C12.6102 98.4275 0 138.028 0 180.499C0 222.969 12.6102 262.57 35.2511 294.998L59.325 278.067C40.4099 251.093 29.8059 216.082 29.8059 180.499C29.8059 144.916 40.4099 110.193 59.325 82.9314ZM368.848 43.3319C368.848 53.0887 361.396 60.5497 351.652 60.5497C342.195 60.5497 334.743 53.0887 334.457 43.3319C334.457 33.8621 341.908 26.1141 351.652 26.1141C361.11 26.1141 368.848 33.5752 368.848 43.3319ZM351.652 300.45C341.907 300.45 334.456 308.198 334.456 317.668C334.456 327.425 341.907 334.887 351.652 334.887C361.395 334.887 368.847 327.425 368.847 317.668C369.133 308.198 361.395 300.45 351.652 300.45ZM359.675 278.067C378.59 250.805 389.194 216.082 389.194 180.499C389.194 144.916 378.304 110.193 359.675 82.9314L383.748 66.0005C406.39 98.4275 419 138.028 419 180.499C419 222.969 406.39 262.57 383.748 294.998L359.675 278.067Z" fill="#477FEB"/>
</svg>
